<?xml version="1.0" encoding="UTF-8"?><svg id="Calque_2" xmlns="http://www.w3.org/2000/svg" xmlns:xlink="http://www.w3.org/1999/xlink" viewBox="0 0 140.99 134.39"><defs><style>.cls-1{filter:url(#drop-shadow-1);}.cls-2{fill:none;stroke:#000;stroke-miterlimit:10;stroke-width:2px;}.cls-3{opacity:.7;}.cls-4,.cls-5{stroke-width:0px;}.cls-5{fill:#fff;}</style><filter id="drop-shadow-1" filterUnits="userSpaceOnUse"><feOffset dx="7" dy="7"/><feGaussianBlur result="blur" stdDeviation="5"/><feFlood flood-color="#000" flood-opacity=".75"/><feComposite in2="blur" operator="in"/><feComposite in="SourceGraphic"/></filter></defs><g id="interface"><g class="cls-1"><g class="cls-3"><path class="cls-5" d="m70,132.88c-4.29-53.98-50.32-61.39-65.15-62.37,19.93-.88,35.77-7.28,47.11-19.05,15.16-15.74,18.22-37.14,18.81-46.49,1.17,26.24,11.78,45.14,31.57,56.22,12.83,7.18,26.14,9.09,33.45,9.56-23.29.99-40.9,9.46-52.39,25.2-9.55,13.08-12.5,28.2-13.4,36.92Z"/><path class="cls-4" d="m70.75,6.88c.83,12.84,4.01,23.99,9.51,33.22,5.27,8.85,12.68,15.98,22.02,21.21,11.79,6.6,24,8.75,31.58,9.43-22.37,1.37-39.36,9.81-50.56,25.15-9.12,12.49-12.23,26.84-13.29,35.72-1.21-13.04-4.97-24.27-11.19-33.41-5.44-7.98-12.78-14.43-21.82-19.15-11.37-5.94-22.91-7.9-30.1-8.53,19-1.22,34.17-7.59,45.14-18.98,14.24-14.78,17.82-34.55,18.7-44.67m.03-6.88v.29S73.38,70.5,0,70.5h0s.31,0,.89,0c7.83,0,65.14,2.11,69.1,63.9,1.49-17.48,11.06-63.61,70.53-63.61h.2c-.15,0-.35,0-.61,0-8.11,0-69.32-2.27-69.32-70.79h0Zm70.2,70.78h-.27c.18,0,.27,0,.27,0h0Z"/></g><path class="cls-5" d="m70,132.88c-4.29-53.98-50.32-61.39-65.15-62.37,19.93-.88,35.77-7.28,47.11-19.05,15.16-15.74,18.22-37.14,18.81-46.49,1.17,26.24,11.78,45.14,31.57,56.22,12.83,7.18,26.14,9.09,33.45,9.56-23.29.99-40.9,9.46-52.39,25.2-9.55,13.08-12.5,28.2-13.4,36.92Z"/><path class="cls-4" d="m70.75,6.88c.83,12.84,4.01,23.99,9.51,33.22,5.27,8.85,12.68,15.98,22.02,21.21,11.79,6.6,24,8.75,31.58,9.43-22.37,1.37-39.36,9.81-50.56,25.15-9.12,12.49-12.23,26.84-13.29,35.72-1.21-13.04-4.97-24.27-11.19-33.41-5.44-7.98-12.78-14.43-21.82-19.15-11.37-5.94-22.91-7.9-30.1-8.53,19-1.22,34.17-7.59,45.14-18.98,14.24-14.78,17.82-34.55,18.7-44.67m.03-6.88v.29S73.38,70.5,0,70.5h0s.31,0,.89,0c7.83,0,65.14,2.11,69.1,63.9,1.49-17.48,11.06-63.61,70.53-63.61h.2c-.15,0-.35,0-.61,0-8.11,0-69.32-2.27-69.32-70.79h0Zm70.2,70.78h-.27c.18,0,.27,0,.27,0h0Z"/><line class="cls-2" x1="44.97" y1="70.89" x2="96.02" y2="70.89"/></g></g></svg>